<svg xmlns="http://www.w3.org/2000/svg" width="30.375" height="36.716" viewBox="0 0 30.375 36.716"><defs><style>.a{fill:#444;}.b{fill:#458ef5;}</style></defs><g transform="translate(-153.6 -68.267)"><path class="a" d="M168.8,68.267c-8.375,0-15.167,6.415-15.2,14.417l0,.333a13.83,13.83,0,0,0,2.52,7.639l.17.238.077.125.072.107a2.243,2.243,0,0,0,.157.2l.013.014,9.888,12.544a2.894,2.894,0,0,0,.481.482l.127.094a2.893,2.893,0,0,0,3.935-.576l9.888-12.544-.069.075a2.438,2.438,0,0,0,.31-.394l.091-.147a14.031,14.031,0,0,0,2.712-8.163C183.975,74.7,177.162,68.267,168.8,68.267Zm0,2.893c6.8,0,12.278,5.176,12.278,11.531a11.193,11.193,0,0,1-2.188,6.522l-.153.239a.5.5,0,0,1,.059-.068l-.1.119-9.922,12.589L158.849,89.5l-.056-.067-.108-.171.085.145-.007-.007.014.019a11.293,11.293,0,0,1-2.283-6.73C156.522,76.323,161.989,71.16,168.8,71.16Z" transform="translate(0 0)"/><path class="b" d="M364.114,261.018a5.714,5.714,0,1,0,5.714,5.714A5.714,5.714,0,0,0,364.114,261.018Zm0,2.539a3.174,3.174,0,1,1-3.174,3.174A3.174,3.174,0,0,1,364.114,263.557Z" transform="translate(-195.326 -183.788)"/></g></svg>